<svg xmlns="http://www.w3.org/2000/svg" width="12" height="12" viewBox="0 0 12 12"><defs><style>.a{fill:none;}.b{fill:rgba(0,0,0,0.6);fill-rule:evenodd;}</style></defs><rect class="a" width="12" height="12"/><g transform="translate(1.896 0.35)"><path class="b" d="M111.172,159.952q1.907-.059,3.816,0a.4.4,0,0,1,.156.044.384.384,0,0,1,.2.37.405.405,0,0,1-.05.155c-.486.781-1.019,1.531-1.53,2.3a.4.4,0,0,1-.1.1.383.383,0,0,1-.343.045.407.407,0,0,1-.123-.073q-.366-.344-.721-.7-.093.277-.192.552a.4.4,0,0,1-.053.1.382.382,0,0,1-.192.132.422.422,0,0,1-.09.015H111.9l1.16,6.379a.389.389,0,0,1,.006.066.384.384,0,0,1-.05.191.469.469,0,0,1-.061.079l-1.517,1.517a.452.452,0,0,1-.083.063.384.384,0,0,1-.338.016.427.427,0,0,1-.115-.079l-1.517-1.517a.469.469,0,0,1-.061-.079.384.384,0,0,1-.05-.191.389.389,0,0,1,.006-.066l1.16-6.379H110.4a.422.422,0,0,1-.09-.015.382.382,0,0,1-.192-.132.4.4,0,0,1-.053-.1q-.1-.279-.195-.561-.352.345-.7.692a.406.406,0,0,1-.118.08.381.381,0,0,1-.345-.024.4.4,0,0,1-.106-.1c-.534-.749-1.021-1.53-1.531-2.295a.407.407,0,0,1-.059-.151A.383.383,0,0,1,107.2,160a.4.4,0,0,1,.156-.044Q109.263,159.894,111.172,159.952Zm-1.108,9.354,1.108,1.109,1.108-1.109-1.108-6.1Zm1.113-8.431q-.348.36-.7.711l.214.642h.209c.182,0,.364-.006.546,0h.214c.072-.215.14-.432.213-.647Q111.524,161.228,111.177,160.875Zm3.078-.164h-2.168l1.3,1.3Zm-6.167,0,.867,1.3,1.3-1.3Z" transform="translate(-107 -159.923)"/></g></svg>