<svg xmlns="http://www.w3.org/2000/svg" width="12" height="6" viewBox="0 0 12 6"><defs><style>.a{fill:rgba(0,0,0,0.6);}</style></defs><g transform="translate(-3 -13)"><g transform="translate(3 13)"><path class="a" d="M14.714,13H3.286A.28.28,0,0,0,3,13.273v5.455A.28.28,0,0,0,3.286,19H14.714A.28.28,0,0,0,15,18.727V13.273A.28.28,0,0,0,14.714,13Zm-11.143.545h.563a.838.838,0,0,1-.563.649Zm0,4.909v-.611a.838.838,0,0,1,.554.611Zm10.857,0h-.571a.826.826,0,0,1,.571-.761Zm0-1.325a1.383,1.383,0,0,0-1.143,1.325H4.7a1.392,1.392,0,0,0-1.126-1.175v-2.52A1.384,1.384,0,0,0,4.7,13.545h8.614a1.4,1.4,0,0,0,1.114,1.064Zm0-3.085a.843.843,0,0,1-.523-.5h.523Z" transform="translate(-3 -13)"/><path class="a" d="M20.385,17.4A2.563,2.563,0,0,0,17.692,15,2.563,2.563,0,0,0,15,17.4a2.563,2.563,0,0,0,2.692,2.4A2.563,2.563,0,0,0,20.385,17.4ZM17.692,19.27A1.993,1.993,0,0,1,15.6,17.4a1.993,1.993,0,0,1,2.094-1.868A1.993,1.993,0,0,1,19.787,17.4,1.993,1.993,0,0,1,17.692,19.27Z" transform="translate(-11.692 -14.402)"/></g></g></svg>