<svg xmlns="http://www.w3.org/2000/svg" width="20" height="20" viewBox="0 0 20 20"><defs><style>.a{fill:rgba(0,0,0,0.37);fill-rule:evenodd;}</style></defs><path class="a" d="M14.111,13.921v1.3H11.889V13.758a1.989,1.989,0,0,1,1.43-1.914,1.121,1.121,0,0,0,.792-1.066A1.141,1.141,0,0,0,13,9.667a1.112,1.112,0,0,0-1.111,1.111H9.667A3.337,3.337,0,0,1,13,7.445a3.334,3.334,0,0,1,1.111,6.477M13,18.556a1.111,1.111,0,1,1,1.111-1.111A1.112,1.112,0,0,1,13,18.556M19.667,3H6.333A3.333,3.333,0,0,0,3,6.333V19.667A3.333,3.333,0,0,0,6.333,23H19.667A3.333,3.333,0,0,0,23,19.667V6.333A3.333,3.333,0,0,0,19.667,3" transform="translate(-3 -3)"/></svg>