<svg xmlns="http://www.w3.org/2000/svg" width="12" height="11" viewBox="0 0 12 11"><defs><style>.a{fill:rgba(0,0,0,0.6);}</style></defs><g transform="translate(-32 -56.926)"><g transform="translate(-0.33 1)"><g transform="translate(32.33 55.926)"><path class="a" d="M353.457,232.4a.534.534,0,0,0-.534.534v3.469h1.067v-3.469A.534.534,0,0,0,353.457,232.4Z" transform="translate(-344.376 -227.662)"/><path class="a" d="M69.19,58.844h.722l-5.338-2.918c-1,.575-1.9,1.059-2.775,1.527-.391.21-.774.416-1.16.627H62a.134.134,0,0,1,0,.267H60.261a.117.117,0,0,1-.068-.022c-.3.167-.61.339-.926.52H69.19ZM64.6,56.709a.8.8,0,1,1-.744.8A.775.775,0,0,1,64.6,56.709Z" transform="translate(-58.496 -55.926)"/><path class="a" d="M241.623,232.4a.534.534,0,0,0-.534.534v3.469h1.067v-3.469A.534.534,0,0,0,241.623,232.4Z" transform="translate(-235.523 -227.662)"/><path class="a" d="M100.338,167.168h-8.8l-.01.8h8.811Z" transform="translate(-89.832 -164.12)"/><path class="a" d="M241.623,93.678a.534.534,0,1,0-.534-.534A.534.534,0,0,0,241.623,93.678Z" transform="translate(-235.523 -91.561)"/><path class="a" d="M129.788,232.4a.534.534,0,0,0-.534.534v3.469h1.067v-3.469A.534.534,0,0,0,129.788,232.4Z" transform="translate(-126.67 -227.662)"/><path class="a" d="M111.132,381.518v.8h7.7v-.8h-7.7Z" transform="translate(-108.876 -372.653)"/><path class="a" d="M44.2,419.6H43.18v-.8h-9.5v.8H32.455a.134.134,0,0,0,0,.267H44.2a.134.134,0,0,0,0-.267Z" transform="translate(-32.33 -408.863)"/></g></g></g></svg>