<svg xmlns="http://www.w3.org/2000/svg" width="12" height="14" viewBox="0 0 12 14"><defs><style>.a{fill:rgba(0,0,0,0.6);}</style></defs><g transform="translate(-6 -3)"><g transform="translate(6 3)"><path class="a" d="M17.657,3H6.343A.338.338,0,0,0,6,3.333V16.667A.338.338,0,0,0,6.343,17H17.657A.338.338,0,0,0,18,16.667V3.333A.338.338,0,0,0,17.657,3Zm-.343,13.333H6.686V3.667H17.314Z" transform="translate(-6 -3)"/><path class="a" d="M25.633,11.267A2.633,2.633,0,1,0,23,8.633a2.633,2.633,0,0,0,2.633,2.633Zm0-4.565A1.931,1.931,0,1,1,23.7,8.633,1.931,1.931,0,0,1,25.633,6.7Z" transform="translate(-17.32 -4.947)"/><path class="a" d="M26.985,12.455h.035a.351.351,0,0,0,.249-.1L29.025,10.6a.353.353,0,0,0-.5-.5l-1.45,1.454-.467-.7a.351.351,0,1,0-.583.386l.7,1.053A.351.351,0,0,0,26.985,12.455Z" transform="translate(-19.167 -7.689)"/><path class="a" d="M11.351,9.7H14.16a.351.351,0,0,0,0-.7H11.351a.351.351,0,1,0,0,.7Z" transform="translate(-9.244 -6.893)"/><path class="a" d="M11.351,13.7H14.16a.351.351,0,0,0,0-.7H11.351a.351.351,0,0,0,0,.7Z" transform="translate(-9.244 -9.676)"/><path class="a" d="M11.351,17.7H14.16a.351.351,0,0,0,0-.7H11.351a.351.351,0,1,0,0,.7Z" transform="translate(-9.244 -12.346)"/><path class="a" d="M11.351,21.7H14.16a.351.351,0,0,0,0-.7H11.351a.351.351,0,1,0,0,.7Z" transform="translate(-9.244 -15.016)"/><path class="a" d="M11.34,25.7h7.81a.351.351,0,0,0,0-.7H11.34a.351.351,0,0,0,0,.7Z" transform="translate(-9.244 -17.686)"/><path class="a" d="M11.34,29.7h7.81a.351.351,0,0,0,0-.7H11.34a.351.351,0,0,0,0,.7Z" transform="translate(-9.244 -20.356)"/><path class="a" d="M11.34,33.7h7.81a.351.351,0,0,0,0-.7H11.34a.351.351,0,0,0,0,.7Z" transform="translate(-9.244 -23.027)"/><path class="a" d="M11.34,37.7h7.81a.351.351,0,0,0,0-.7H11.34a.351.351,0,0,0,0,.7Z" transform="translate(-9.244 -25.809)"/></g></g></svg>