<svg xmlns="http://www.w3.org/2000/svg" width="20" height="24" viewBox="0 0 20 24"><defs><style>.a{fill:rgba(0,0,0,0.37);}</style></defs><path class="a" d="M16.5,30.073h7.277a1.876,1.876,0,0,0-.088.585,2.357,2.357,0,0,0,4.714,0,1.876,1.876,0,0,0-.088-.585h7.277a.439.439,0,0,0,.383-.673l-1.827-3.249a5.838,5.838,0,0,1-.766-2.9V19.127a7.516,7.516,0,0,0-5.893-7.317V10.463a1.473,1.473,0,0,0-2.946,0V11.78a7.333,7.333,0,0,0-5.863,7.171v4.3a5.838,5.838,0,0,1-.766,2.9L16.085,29.4A.461.461,0,0,0,16.5,30.073Z" transform="translate(-16.037 -9)"/></svg>