<svg xmlns="http://www.w3.org/2000/svg" width="20" height="23" viewBox="0 0 20 23"><defs><style>.a{fill:rgba(0,0,0,0.37);}</style></defs><path class="a" d="M17.277,24.3H7.3c.047-4.2-.117-6.416,2.576-7.407a21.76,21.76,0,0,0,3.911-1.911L15.684,21l.258.826.843-2.43c-1.944-2.736.141-2.854.515-2.854h0c.351,0,2.459.142.515,2.854l.843,2.406.258-.826,1.9-5.992a22.858,22.858,0,0,0,3.911,1.911c2.693.991,2.529,3.232,2.576,7.407H17.277ZM13.483,2.833l1.054.755A4.575,4.575,0,0,1,15.942,3l.211-1.3a.484.484,0,0,1,.492-.4h1.265a.5.5,0,0,1,.492.4L18.611,3a5.025,5.025,0,0,1,1.382.566l1.054-.778a.493.493,0,0,1,.632.047l.445.448.445.448a.5.5,0,0,1,.047.637l-.749,1.062a6.044,6.044,0,0,1,.585,1.392l1.288.212a.529.529,0,0,1,.422.5V8.8a.5.5,0,0,1-.4.5l-1.288.212a5.1,5.1,0,0,1-.562,1.392l.749,1.062a.5.5,0,0,1-.047.637l-.445.448-.445.448a.494.494,0,0,1-.679.118l-1.054-.755a4.883,4.883,0,0,1-1.358.566l-.211,1.3a.484.484,0,0,1-.492.4H16.668a.5.5,0,0,1-.492-.4l-.211-1.274a5.339,5.339,0,0,1-1.382-.566l-1.077.755a.493.493,0,0,1-.632-.047l-.445-.448-.445-.448a.5.5,0,0,1-.047-.637L12.686,11A6.044,6.044,0,0,1,12.1,9.6l-1.288-.212a.486.486,0,0,1-.4-.5V7.622a.5.5,0,0,1,.4-.5l1.265-.212a5.423,5.423,0,0,1,.562-1.392L11.89,4.437a.5.5,0,0,1,.047-.637l.445-.472.445-.448A.526.526,0,0,1,13.483,2.833Zm1.1,5.544.984.991,1.03,1.038,1.03-1.038L19.97,7.009l-1.03-1.014L16.6,8.353l-.984-.991Z" transform="translate(-7.3 -1.3)"/></svg>