<svg xmlns="http://www.w3.org/2000/svg" width="12" height="13" viewBox="0 0 12 13"><defs><style>.a{fill:rgba(0,0,0,0.6);}</style></defs><g transform="translate(-5 -3)"><g transform="translate(5 3)"><path class="a" d="M11,16a5.947,5.947,0,0,0,6-5.881,5.938,5.938,0,0,0-5.684-5.865V3.619h.947a.31.31,0,1,0,0-.619H9.737a.31.31,0,1,0,0,.619h.947v.635A5.938,5.938,0,0,0,5,10.119,5.947,5.947,0,0,0,11,16ZM11,4.857a5.324,5.324,0,0,1,5.368,5.262,5.37,5.37,0,0,1-10.737,0A5.324,5.324,0,0,1,11,4.857Z" transform="translate(-5 -3)"/><path class="a" d="M10.38,19.223s.009,0,.013.006a4.637,4.637,0,0,0,6.646,0s.009,0,.013-.006,0-.01.006-.013a4.879,4.879,0,0,0,0-6.787s0-.01-.006-.013-.009,0-.013-.006a4.637,4.637,0,0,0-6.646,0s-.009,0-.013.006,0,.01-.006.013a4.879,4.879,0,0,0,0,6.787S10.377,19.219,10.38,19.223Zm-.437-3.728h-.3a4.207,4.207,0,0,1,.971-2.392l.211.215a.305.305,0,0,0,.223.093.319.319,0,0,0,.223-.093.325.325,0,0,0,0-.453l-.211-.215a4.021,4.021,0,0,1,2.342-.992v.305a.314.314,0,1,0,.629,0v-.305a4.029,4.029,0,0,1,2.342.992l-.211.215a.325.325,0,0,0,0,.453.305.305,0,0,0,.223.093.319.319,0,0,0,.223-.093l.211-.215a4.2,4.2,0,0,1,.971,2.392h-.3a.321.321,0,0,0,0,.642h.3a4.207,4.207,0,0,1-.971,2.392l-.211-.215a.308.308,0,0,0-.443,0,.325.325,0,0,0,0,.453l.211.215a4.021,4.021,0,0,1-2.342.992v-.305a.314.314,0,1,0-.629,0v.305a4.029,4.029,0,0,1-2.342-.992l.211-.215a.325.325,0,0,0,0-.453.308.308,0,0,0-.443,0l-.211.215a4.2,4.2,0,0,1-.971-2.392h.3a.321.321,0,0,0,0-.642Z" transform="translate(-7.716 -8.916)"/><path class="a" d="M22.642,20.532a.64.64,0,0,0,.321-1.194V17.321a.321.321,0,1,0-.642,0v2.016a.64.64,0,0,0,.321,1.194Z" transform="translate(-16.642 -12.724)"/></g></g></svg>