<svg xmlns="http://www.w3.org/2000/svg" width="20" height="28" viewBox="0 0 20 28"><defs><style>.a{fill:rgba(0,0,0,0.37);}</style></defs><path class="a" d="M26.258,8V9.667h-2.1v3h9.677v-3h-2.1V8ZM19,11V36H39V11H35.129v2.333a.682.682,0,0,1-.645.667H23.516a.682.682,0,0,1-.645-.667V11Zm6.724,5.99a.652.652,0,0,1,.635.365.707.707,0,0,1-.1.75l-2.9,3.333a.656.656,0,0,1-.937.031L20.8,19.8a.7.7,0,0,1-.01-.948.65.65,0,0,1,.917,0l1.129,1.167,2.45-2.8A.646.646,0,0,1,25.724,16.99ZM27.649,19h9.093a.667.667,0,0,1,0,1.333H27.71A.668.668,0,0,1,27.649,19Zm-1.925,3.656a.652.652,0,0,1,.635.365.707.707,0,0,1-.1.75l-2.9,3.333a.656.656,0,0,1-.937.031L20.8,25.469a.7.7,0,0,1-.01-.948.65.65,0,0,1,.917,0l1.129,1.167,2.45-2.8A.646.646,0,0,1,25.724,22.656Zm1.925,2.01h9.093a.667.667,0,0,1,0,1.333H27.71a.668.668,0,0,1-.06-1.333Zm-1.925,3.656a.652.652,0,0,1,.635.365.707.707,0,0,1-.1.75l-2.9,3.333a.656.656,0,0,1-.937.031L20.8,31.135a.7.7,0,0,1-.01-.948.65.65,0,0,1,.917,0l1.129,1.167,2.45-2.8A.646.646,0,0,1,25.724,28.323Zm1.925,2.01h9.093a.667.667,0,0,1,0,1.333H27.71a.668.668,0,0,1-.06-1.333Z" transform="translate(-19 -8)"/></svg>