<svg xmlns="http://www.w3.org/2000/svg" width="20" height="20" viewBox="0 0 20 20"><defs><style>.a{fill:rgba(0,0,0,0.37);}</style></defs><path class="a" d="M0,3.876c.036-.176.067-.351.108-.527A4.446,4.446,0,0,1,4.376.016C4.962,0,5.549.005,6.136.016A1.747,1.747,0,0,1,7.908,1.7,1.739,1.739,0,0,1,6.18,3.434c-.521.018-1.043,0-1.565.006A.923.923,0,0,0,3.571,4.449v11.1a.929.929,0,0,0,1.055,1.02c.543,0,1.088-.016,1.63.013a1.7,1.7,0,0,1,1.445,2.5,1.653,1.653,0,0,1-1.416.907,18.257,18.257,0,0,1-2.344-.029A4.392,4.392,0,0,1,.046,16.323c-.01-.069-.031-.134-.046-.2Z" transform="translate(0 -0.007)"/><path class="a" d="M139.483,89.444c-.085-.088-.134-.142-.187-.192-.755-.716-1.514-1.429-2.264-2.149a1.58,1.58,0,0,1-.191-2.116,1.848,1.848,0,0,1,2.236-.565,2.02,2.02,0,0,1,.523.357q2.732,2.56,5.452,5.131a1.589,1.589,0,0,1,0,2.425q-2.662,2.51-5.332,5.014a1.861,1.861,0,0,1-2.569.023,1.6,1.6,0,0,1,.046-2.4q1.047-1,2.106-1.978a1.338,1.338,0,0,1,.176-.119l-.033-.074H131.9a1.805,1.805,0,0,1-1.8-1.277,1.7,1.7,0,0,1,1.756-2.078c1.572-.007,3.145,0,4.717,0h2.907Z" transform="translate(-125.611 -80.823)"/></svg>