<svg xmlns="http://www.w3.org/2000/svg" width="12" height="4" viewBox="0 0 12 4"><defs><style>.a{fill:rgba(0,0,0,0.6);}</style></defs><g transform="translate(-2.5 -34.087)"><g transform="translate(2.5 34.087)"><path class="a" d="M6.692,34.272a.547.547,0,0,0-.734-.013.473.473,0,0,0-.013.691l.708.679H3.021a.491.491,0,1,0,0,.981H6.652l-.708.679a.463.463,0,0,0,.013.691.559.559,0,0,0,.36.138.544.544,0,0,0,.374-.151l1.562-1.509a.459.459,0,0,0,0-.679Z" transform="translate(-2.5 -34.119)"/><path class="a" d="M58.658,35.6H55.027l.708-.679a.463.463,0,0,0-.013-.692.534.534,0,0,0-.734.013l-1.562,1.509a.459.459,0,0,0,0,.679l1.562,1.509a.544.544,0,0,0,.374.151.533.533,0,0,0,.36-.138.473.473,0,0,0,.013-.692l-.708-.679h3.631a.507.507,0,0,0,.521-.49A.5.5,0,0,0,58.658,35.6Z" transform="translate(-47.179 -34.087)"/></g></g></svg>